<svg width="56" height="56" viewBox="0 0 56 56" fill="none" xmlns="http://www.w3.org/2000/svg">
<rect width="56" height="56" rx="28" fill="#E33D65"/>
<path d="M37.4261 27.095L20.4261 19.095C20.0761 18.931 19.6631 18.982 19.3651 19.228C19.0661 19.473 18.9371 19.868 19.0301 20.242L20.2421 25.091L28.0001 28L20.2421 30.909L19.0301 35.758C18.9361 36.132 19.0661 36.528 19.3651 36.773C19.5481 36.923 19.7721 37 20.0001 37C20.1451 37 20.2901 36.969 20.4261 36.905L37.4261 28.905C37.7761 28.74 38.0001 28.388 38.0001 28C38.0001 27.612 37.7761 27.26 37.4261 27.095Z" fill="white"/>
</svg>
